<svg xmlns="http://www.w3.org/2000/svg" width="18" height="18.312" viewBox="0 0 18 18.312"><defs><style>.a{fill:#f4f8fb;}</style></defs><g transform="translate(0 0.846)"><g transform="translate(0 -0.846)"><path class="a" d="M0,88H10.589v1.513H0Z" transform="translate(0 -71.201)"/><path class="a" d="M15.563,76.691a.756.756,0,0,0-.756-.756H8.756A.756.756,0,0,0,8,76.691v.769h7.563Z" transform="translate(-6.487 -61.417)"/><path class="a" d="M50.664,43.476a5.277,5.277,0,0,0-.877,1.262l6.225,6.225a.756.756,0,0,0,1.069,0l1.07-1.07a.756.756,0,0,0,0-1.07L51.926,42.6A5.155,5.155,0,0,0,50.664,43.476Z" transform="translate(-40.373 -34.385)"/><path class="a" d="M26.242,19.054a6.559,6.559,0,0,1-1.955,1.253L28.2,24.216a6.666,6.666,0,0,1,1.255-1.954,6.564,6.564,0,0,1,1.955-1.254L27.5,17.1A6.671,6.671,0,0,1,26.242,19.054Z" transform="translate(-19.695 -13.707)"/><rect class="a" width="3.025" height="7.563" rx="1.513" transform="translate(7.616 2.139) rotate(-45)"/><rect class="a" width="3.025" height="7.563" rx="1.513" transform="translate(1.198 8.555) rotate(-45)"/></g></g></svg>