<svg xmlns="http://www.w3.org/2000/svg" width="13.333" height="17.777" viewBox="0 0 13.333 17.777"><defs><style>.a{fill:#f4f8fb;}</style></defs><g transform="translate(-64)"><path class="a" d="M68.722,4.583V1.326a.173.173,0,0,0-.245-.158.555.555,0,0,0-.148.106L65.274,4.329a.554.554,0,0,0-.106.148.173.173,0,0,0,.158.245h3.257A.139.139,0,0,0,68.722,4.583Z" transform="translate(-1.111 -1.111)"/><path class="a" d="M76.083,0H68.9a.174.174,0,0,0-.174.174v3.3a1.25,1.25,0,0,1-1.25,1.25h-3.3A.174.174,0,0,0,64,4.9V16.527a1.25,1.25,0,0,0,1.25,1.25H76.083a1.25,1.25,0,0,0,1.25-1.25V1.25A1.25,1.25,0,0,0,76.083,0ZM71.222,13.262v.348a.556.556,0,0,1-1.111,0v-.348a2.212,2.212,0,0,1-1.636-1.783.556.556,0,1,1,1.1-.183,1.111,1.111,0,1,0,1.1-1.3,2.222,2.222,0,0,1-.556-4.374V5.278a.556.556,0,0,1,1.111,0v.348a2.212,2.212,0,0,1,1.636,1.783.556.556,0,1,1-1.1.183,1.111,1.111,0,1,0-1.1,1.3,2.222,2.222,0,0,1,.556,4.374Z"/></g></svg>