<svg xmlns="http://www.w3.org/2000/svg" width="19.059" height="18" viewBox="0 0 19.059 18"><defs><style>.a{fill:#f4f8fb;}</style></defs><g transform="translate(0 -10.453)"><g transform="translate(0 10.453)"><g transform="translate(0 0)"><path class="a" d="M162.577,25.9h4l-4.606-4.474V25.13C161.968,25.5,162.206,25.9,162.577,25.9Z" transform="translate(-153.762 -20.868)"/><path class="a" d="M7.412,19.617v-4H1.139A1.059,1.059,0,0,0,0,16.7V32.058a1.237,1.237,0,0,0,1.138,1.3H11.991a1.324,1.324,0,0,0,1.244-1.3V21.178H8.815A1.52,1.52,0,0,1,7.412,19.617ZM2.2,23.561H6.7a.4.4,0,1,1,0,.794H2.2a.4.4,0,1,1,0-.794Zm8.471,7.147H2.2a.4.4,0,0,1,0-.794h8.471a.4.4,0,1,1,0,.794Zm.4-3.574a.4.4,0,0,1-.4.4H2.2a.4.4,0,0,1,0-.794h8.471A.4.4,0,0,1,11.065,27.134Z" transform="translate(0 -15.355)"/><path class="a" d="M346.531,325.325l.688-1.4h-1.35Z" transform="translate(-328.345 -308.04)"/><path class="a" d="M315.146,41.8H314.8v.291h-.847a.556.556,0,0,0-.318.185.45.45,0,0,0-.159.318v4.526a.4.4,0,0,0,.794,0V42.991h.529v3.838h1.853V41.8Z" transform="translate(-297.595 -40.212)"/><path class="a" d="M351.028,11.009a.5.5,0,0,0-.132-.344.582.582,0,0,0-.4-.212c-.291,0-.45.344-.45.635v.424h.979Z" transform="translate(-332.313 -10.453)"/><rect class="a" width="1.853" height="0.529" transform="translate(17.206 7.412)"/><rect class="a" width="1.853" height="6.353" transform="translate(17.206 8.735)"/></g></g></g></svg>