<svg xmlns="http://www.w3.org/2000/svg" width="17.777" height="17.777" viewBox="0 0 17.777 17.777"><defs><style>.a{fill:#f4f8fb;}</style></defs><path class="a" d="M6.851,0H1.3A1.3,1.3,0,0,0,0,1.3V4.629a1.3,1.3,0,0,0,1.3,1.3H6.851a1.3,1.3,0,0,0,1.3-1.3V1.3A1.3,1.3,0,0,0,6.851,0Zm0,0"/><path class="a" d="M6.851,213.332H1.3a1.3,1.3,0,0,0-1.3,1.3v7.777a1.3,1.3,0,0,0,1.3,1.3H6.851a1.3,1.3,0,0,0,1.3-1.3v-7.777A1.3,1.3,0,0,0,6.851,213.332Zm0,0" transform="translate(0 -205.925)"/><path class="a" d="M284.184,341.332h-5.555a1.3,1.3,0,0,0-1.3,1.3v3.333a1.3,1.3,0,0,0,1.3,1.3h5.555a1.3,1.3,0,0,0,1.3-1.3v-3.333A1.3,1.3,0,0,0,284.184,341.332Zm0,0" transform="translate(-267.703 -329.481)"/><path class="a" d="M284.184,0h-5.555a1.3,1.3,0,0,0-1.3,1.3V9.074a1.3,1.3,0,0,0,1.3,1.3h5.555a1.3,1.3,0,0,0,1.3-1.3V1.3A1.3,1.3,0,0,0,284.184,0Zm0,0" transform="translate(-267.703)"/></svg>