<svg xmlns="http://www.w3.org/2000/svg" width="20.492" height="17.852" viewBox="0 0 20.492 17.852"><defs><style>.a{fill:#142534;}</style></defs><g transform="translate(0 -32.979)"><path class="a" d="M223,236.644v2h2.642v-2l-1.321-1.1Z" transform="translate(-214.075 -194.457)"/><path class="a" d="M.663,45.965a2.521,2.521,0,0,1,3.179-.443V33.356A2.523,2.523,0,0,0,0,35.5V46.628Z" transform="translate(0 0)"/><path class="a" d="M416,45.524a2.521,2.521,0,0,1,3.179.443l.663.663V35.5A2.523,2.523,0,0,0,416,33.358Z" transform="translate(-399.35 -0.002)"/><path class="a" d="M29.666,108.257a1.321,1.321,0,0,0-2.3.877.611.611,0,0,1-.6.61.6.6,0,0,1-.6-.6V97.017H15.76v12.11a.612.612,0,0,1-.571.617.6.6,0,0,1-.629-.6,1.321,1.321,0,0,0-2.3-.887c-.015.017-.484.485-.48.481a2.087,2.087,0,0,0,1.459,3.568c.229,0,15.468,0,15.535,0a2.087,2.087,0,0,0,1.373-3.566C29.659,108.251,29.68,108.273,29.666,108.257Zm-6.182-2a.6.6,0,0,1-.6.6H19.042a.6.6,0,0,1-.6-.6v-2.882a.6.6,0,0,1,.216-.461l1.921-1.6a.6.6,0,0,1,.769,0l1.921,1.6a.6.6,0,0,1,.216.461v2.882Z" transform="translate(-10.717 -61.475)"/></g></svg>