<svg xmlns="http://www.w3.org/2000/svg" width="18" height="17.996" viewBox="0 0 18 17.996"><defs><style>.a{fill:#f4f8fb;}</style></defs><g transform="translate(0 -0.05)"><g transform="translate(0 7.118)"><path class="a" d="M4.5,187.75H.644a.646.646,0,0,0-.644.644v9.64a.644.644,0,0,0,.644.644H4.5a.644.644,0,0,0,.644-.644v-9.64A.644.644,0,0,0,4.5,187.75Z" transform="translate(0 -187.75)"/></g><g transform="translate(6.428 0.05)"><path class="a" d="M175.2.05h-3.856a.643.643,0,0,0-.644.64V17.4a.644.644,0,0,0,.644.644H175.2a.644.644,0,0,0,.644-.644V.694A.644.644,0,0,0,175.2.05Z" transform="translate(-170.7 -0.05)"/></g><g transform="translate(12.856 5.19)"><path class="a" d="M345.9,136.55h-3.856a.641.641,0,0,0-.644.644v11.568a.644.644,0,0,0,.644.644H345.9a.644.644,0,0,0,.644-.644V137.194A.644.644,0,0,0,345.9,136.55Z" transform="translate(-341.4 -136.55)"/></g></g></svg>