<svg xmlns="http://www.w3.org/2000/svg" width="15.715" height="20.2" viewBox="0 0 15.715 20.2"><defs><style>.a{fill:#6d737c;}</style></defs><g transform="translate(0)"><path class="a" d="M126.684,1.219h3.376v.568h1.219V1.14A1.141,1.141,0,0,0,130.14,0H126.6a1.141,1.141,0,0,0-1.139,1.14v.648h1.219Zm0,0" transform="translate(-120.514)"/><path class="a" d="M52.473,167.75H41.027a.537.537,0,0,0-.535.58l.957,11.832a1.271,1.271,0,0,0,1.266,1.169h8.07a1.271,1.271,0,0,0,1.266-1.169l.957-11.832A.537.537,0,0,0,52.473,167.75ZM43.8,180.07H43.76a.61.61,0,0,1-.608-.572l-.6-9.714a.61.61,0,1,1,1.217-.075l.6,9.714A.61.61,0,0,1,43.8,180.07Zm3.568-.608a.61.61,0,0,1-1.219,0v-9.714a.61.61,0,0,1,1.219,0Zm3.581-9.678-.573,9.714a.61.61,0,0,1-.608.574H49.73a.61.61,0,0,1-.573-.645l.572-9.714a.61.61,0,0,1,1.217.072Zm0,0" transform="translate(-38.892 -161.132)"/><path class="a" d="M15.689,77.941l-.4-1.2a.775.775,0,0,0-.735-.53H1.162a.775.775,0,0,0-.735.53l-.4,1.2A.5.5,0,0,0,.5,78.6H15.212a.5.5,0,0,0,.266-.077A.5.5,0,0,0,15.689,77.941Zm0,0" transform="translate(0 -73.204)"/></g></svg>