<svg xmlns="http://www.w3.org/2000/svg" width="47.102" height="68.298" viewBox="0 0 47.102 68.298"><defs><style>.a{fill:#f2f2f2;}.b{fill:#d2dce3;}.c{fill:#b53438;}.d{fill:#fff;}</style></defs><path class="a" d="M47.1,64.765H0V0H36.5L47.1,10.6Zm0,0"/><path class="b" d="M273.656,0V10.6h10.6Zm0,0" transform="translate(-237.152)"/><path class="c" d="M0,353.1H47.1v21.2H0Zm0,0" transform="translate(0 -306)"/><g transform="translate(5.888 50.634)"><path class="d" d="M45.314,393.716a1.178,1.178,0,0,1-1.178-1.177V380.764a1.178,1.178,0,1,1,2.355,0v11.776A1.178,1.178,0,0,1,45.314,393.716Zm0,0" transform="translate(-44.137 -379.586)"/><path class="d" d="M246.587,381.941h-7.065a1.178,1.178,0,0,1,0-2.355h7.065a1.178,1.178,0,0,1,0,2.355Zm0,0" transform="translate(-212.438 -379.586)"/><path class="d" d="M246.587,426.078h-7.065a1.178,1.178,0,0,1,0-2.355h7.065a1.178,1.178,0,0,1,0,2.355Zm0,0" transform="translate(-212.438 -417.835)"/><path class="d" d="M239.521,393.716a1.178,1.178,0,0,1-1.178-1.177V380.764a1.178,1.178,0,1,1,2.355,0v11.776A1.178,1.178,0,0,1,239.521,393.716Zm0,0" transform="translate(-212.438 -379.586)"/></g><path class="c" d="M91.548,81.542a2.754,2.754,0,0,0,.113,3.727c1.114-2.451-.062-3.742-.113-3.727m.713,9.808a82.123,82.123,0,0,1-3.138,8.765,59.2,59.2,0,0,1,7.622-2.341,39.656,39.656,0,0,1-4.484-6.425m8.765,7.627c.956.726,1.189,1.094,1.816,1.094a1.5,1.5,0,0,0,1.688-.99c-.143-.077-.336-.228-1.379-.228a17.207,17.207,0,0,0-2.125.125m-16,5.149c-2.508,1.391-3.53,2.534-3.6,3.18-.012.107-.044.388.5.8.176-.055,1.2-.515,3.1-3.981m-3.124,5.94a1.9,1.9,0,0,1-1.135-.378,2.768,2.768,0,0,1-1.308-2.6c.213-1.885,2.575-3.861,7.023-5.873a77.175,77.175,0,0,0,4.445-12.459c-1.17-2.517-2.309-5.783-1.48-7.7a2.241,2.241,0,0,1,1.331-1.409,5.911,5.911,0,0,1,1.193-.2c.616,0,1.207.735,1.492,1.213a4.771,4.771,0,0,1,.449,2.916,25.854,25.854,0,0,1-.436,2.882c-.139.7-.3,1.4-.463,2.089A36.987,36.987,0,0,0,98.98,97.31a23.157,23.157,0,0,1,3.941-.413c1.836,0,2.951.423,3.4,1.293a2.321,2.321,0,0,1-.458,2.5,3.125,3.125,0,0,1-2.6,1.38c-1.429,0-3.089-.89-4.942-2.648a56.791,56.791,0,0,0-10.359,3.27,32.789,32.789,0,0,1-2.8,4.927c-1.2,1.667-2.237,2.443-3.265,2.443" transform="translate(-68.844 -68.851)"/><path class="d" d="M48.847,389.006H45.314a1.178,1.178,0,0,1-1.178-1.178v-7.065a1.178,1.178,0,0,1,1.178-1.178h3.533a4.71,4.71,0,0,1,0,9.42Zm-2.355-2.355h2.355a2.355,2.355,0,0,0,0-4.71H46.492Zm0,0" transform="translate(-38.249 -328.952)"/><path class="d" d="M143.6,393.716H142.42a1.178,1.178,0,0,1-1.178-1.177V380.764a1.178,1.178,0,0,1,1.178-1.178H143.6a7.065,7.065,0,0,1,0,14.13Zm0-2.355h.011Zm0-9.42v9.42a4.71,4.71,0,0,0,0-9.42Zm0,0" transform="translate(-122.401 -328.952)"/></svg>