<svg xmlns="http://www.w3.org/2000/svg" width="29.32" height="22.509" viewBox="0 0 29.32 22.509"><defs><style>.a{fill:#fcd462;}.b{fill:#f6c358;}</style></defs><g transform="translate(0 -54.392)"><path class="a" d="M27.756,76.9H1.564A1.564,1.564,0,0,1,0,75.337V55.956a1.564,1.564,0,0,1,1.564-1.564H8.958a1.564,1.564,0,0,1,1.363.8l.862,1.533a1.564,1.564,0,0,0,1.363.8h15.21a1.564,1.564,0,0,1,1.564,1.564V75.337A1.564,1.564,0,0,1,27.756,76.9Z" transform="translate(0)"/><path class="b" d="M1.564,123.726H27.756a1.564,1.564,0,0,0,1.564-1.564V105.908a1.564,1.564,0,0,0-1.564-1.564h-11.3a1.564,1.564,0,0,0-1.363.8l-.862,1.533a1.564,1.564,0,0,1-1.363.8H1.564A1.564,1.564,0,0,0,0,109.035v13.127A1.564,1.564,0,0,0,1.564,123.726Z" transform="translate(0 -46.824)"/><path class="a" d="M30.5,106.59a1.553,1.553,0,0,1,.141.641v16.254a1.564,1.564,0,0,1-1.564,1.564H2.887a1.553,1.553,0,0,1-.641-.141,1.562,1.562,0,0,0,1.423.922H29.862a1.564,1.564,0,0,0,1.564-1.564V108.013A1.561,1.561,0,0,0,30.5,106.59Z" transform="translate(-2.105 -48.93)"/></g></svg>