<svg xmlns="http://www.w3.org/2000/svg" width="18.415" height="12.556" viewBox="0 0 18.415 12.556"><defs><style>.a{fill:#9da1a7;}</style></defs><g transform="translate(0 -74.667)"><g transform="translate(0 74.667)"><g transform="translate(0 0)"><path class="a" d="M173.178,170.667a2.511,2.511,0,1,0,2.511,2.511A2.513,2.513,0,0,0,173.178,170.667Z" transform="translate(-163.971 -166.9)"/><path class="a" d="M9.207,74.667A9.9,9.9,0,0,0,0,80.945a9.891,9.891,0,0,0,18.415,0A9.9,9.9,0,0,0,9.207,74.667Zm0,10.463a4.185,4.185,0,1,1,4.185-4.185A4.187,4.187,0,0,1,9.207,85.13Z" transform="translate(0 -74.667)"/></g></g></g></svg>